<svg width="319" height="258" viewBox="0 0 319 258" fill="none" xmlns="http://www.w3.org/2000/svg">
<path d="M284.225 257.083H34.9845C15.86 257.083 0.389328 244.503 0.389328 228.953V28.0661C0.389328 12.5792 15.86 0 34.9845 0H284.225C303.35 0 318.82 12.5792 318.82 28.0661V228.953C318.82 244.503 303.35 257.083 284.225 257.083Z" fill="#0C1826"/>
<g opacity="0.7">
<path d="M0.494216 155.894C0.273067 140.569 14.9845 153.686 24.4991 141.671C30.404 134.298 34.2959 124.808 39.7981 116.927C45.3675 109.046 53.4867 102.691 61.6059 104.894C71.2014 107.521 78.4482 121.418 88.1108 119.3C98.6456 116.927 100.659 98.8776 108.174 89.3021C116.629 78.4556 130.72 80.1504 142.462 83.9636C154.138 87.6921 166.887 92.6917 177.825 86.1668C186.749 80.913 191.916 69.3886 197.955 59.5589C203.994 49.8139 213.12 40.5774 222.715 43.289C236.27 47.1023 242.913 72.6086 256.802 70.9138C266.398 69.7275 271.229 55.9998 278.208 47.6107C286.069 38.1314 298.3 35.6718 308.382 40.3049C314.952 43.3241 317.26 50.9992 317.26 58.2298V227C317.26 243.568 303.829 257 287.26 257H31.5235C15.1237 257 1.7632 243.831 1.52657 227.433L0.494216 155.894Z" fill="#6060E7" fill-opacity="0.22"/>
</g>
<path d="M1.48365 152.617C7.79113 155.837 14.8367 153.549 20.4061 149.058C26.5794 144.058 30.7396 136.432 34.8999 128.975C39.1943 121.348 43.7572 113.637 50.6015 109.485C53.8223 107.536 57.58 106.519 61.2034 107.536C64.0217 108.298 66.5715 110.078 68.9871 112.027C73.7513 115.84 78.4483 121.009 84.2861 121.941C89.5871 122.874 94.3512 119.653 97.5721 114.484C100.994 109.146 103.007 102.79 105.893 97.0282C109.181 90.5034 113.676 86.1817 119.782 84.4869C133.739 80.7584 147.361 89.7407 160.982 91.605C168.162 92.6218 175.61 91.4355 181.717 86.3512C187.286 81.7753 191.245 75.0809 195.137 68.4713C199.23 61.3533 203.39 54.1505 209.429 49.4051C214.797 45.2529 221.038 44.0666 226.741 48.0493C235.531 54.32 240.229 67.285 249.757 72.1998C254.588 74.742 260.023 73.8098 264.318 70.0813C269.216 65.8444 272.504 59.4043 276.329 53.8115C280.288 47.8798 285.052 43.6429 291.091 41.7786C296.862 39.9144 303.102 40.4228 308.671 43.2192C311.423 44.575 313.905 46.6087 316.12 49.0662C317.663 50.8457 320.079 47.8798 318.468 46.0156C309.342 35.7622 295.587 33.7285 284.582 40.1686C279.013 43.3887 275.054 48.9814 271.296 54.9131C267.874 60.3364 264.116 67.0307 258.48 68.895C248.281 72.3693 240.967 57.7095 234.659 50.3372C230.767 45.7613 226.272 42.0328 220.903 41.3549C214.059 40.4228 207.618 45.0834 202.652 50.5914C192.788 61.6922 187.689 80.9279 174.134 86.2664C166.753 89.1475 158.835 87.368 151.521 85.1648C144.744 83.1311 138.034 80.5889 131.055 79.7416C124.815 78.9789 118.172 79.5721 112.468 83.3006C107.168 86.6901 103.88 92.6218 101.061 99.062C98.6457 104.57 96.4985 111.18 92.4053 115.162C87.7083 119.738 82.206 117.704 77.6431 114.145C72.6106 110.247 67.9806 104.994 62.0757 103.384C55.1643 101.519 48.3201 105.248 43.0191 110.671C31.7461 122.111 27.1162 144.312 11.9514 149.227C8.73054 150.329 5.5097 150.159 2.35596 148.549C0.410035 147.532 -0.462277 151.6 1.48365 152.617Z" fill="#6060E7"/>
<path d="M18.5852 197.333V184.242H26.4347V185.648H20.1705V190.072H25.8466V191.478H20.1705V197.333H18.5852ZM32.3409 197.538C31.3949 197.538 30.5788 197.329 29.8928 196.911C29.2109 196.489 28.6847 195.901 28.3139 195.147C27.9474 194.388 27.7642 193.506 27.7642 192.501C27.7642 191.495 27.9474 190.609 28.3139 189.842C28.6847 189.07 29.2003 188.469 29.8608 188.039C30.5256 187.604 31.3011 187.387 32.1875 187.387C32.6989 187.387 33.2038 187.472 33.7024 187.643C34.201 187.813 34.6548 188.09 35.0639 188.474C35.473 188.853 35.799 189.356 36.0419 189.982C36.2848 190.609 36.4062 191.38 36.4062 192.296V192.935H28.8381V191.631H34.8722C34.8722 191.077 34.7614 190.583 34.5398 190.148C34.3224 189.714 34.0114 189.371 33.6065 189.119C33.206 188.868 32.733 188.742 32.1875 188.742C31.5866 188.742 31.0668 188.891 30.6278 189.19C30.1932 189.484 29.8587 189.867 29.6243 190.34C29.3899 190.813 29.2727 191.32 29.2727 191.861V192.731C29.2727 193.472 29.4006 194.101 29.6562 194.616C29.9162 195.128 30.2763 195.518 30.7365 195.786C31.1967 196.05 31.7315 196.182 32.3409 196.182C32.7372 196.182 33.0952 196.127 33.4148 196.016C33.7386 195.901 34.0178 195.731 34.2521 195.505C34.4865 195.275 34.6676 194.989 34.7955 194.648L36.2528 195.057C36.0994 195.552 35.8416 195.986 35.4794 196.361C35.1172 196.732 34.6697 197.022 34.1371 197.231C33.6044 197.435 33.0057 197.538 32.3409 197.538ZM38.9055 197.333V184.242H40.4141V189.074H40.5419C40.6527 188.904 40.8061 188.687 41.0021 188.423C41.2024 188.154 41.4879 187.915 41.8587 187.707C42.2337 187.494 42.7408 187.387 43.38 187.387C44.2067 187.387 44.9354 187.594 45.5661 188.007C46.1967 188.42 46.6889 189.006 47.0426 189.765C47.3963 190.523 47.5732 191.418 47.5732 192.45C47.5732 193.489 47.3963 194.391 47.0426 195.153C46.6889 195.912 46.1989 196.5 45.5724 196.918C44.946 197.331 44.2237 197.538 43.4055 197.538C42.7749 197.538 42.2699 197.433 41.8906 197.224C41.5114 197.011 41.2195 196.771 41.0149 196.502C40.8104 196.229 40.6527 196.003 40.5419 195.825H40.3629V197.333H38.9055ZM40.3885 192.424C40.3885 193.165 40.4972 193.82 40.7145 194.386C40.9318 194.949 41.2493 195.39 41.6669 195.709C42.0845 196.025 42.5959 196.182 43.201 196.182C43.8317 196.182 44.358 196.016 44.7798 195.684C45.206 195.347 45.5256 194.896 45.7386 194.329C45.956 193.758 46.0646 193.123 46.0646 192.424C46.0646 191.734 45.9581 191.111 45.745 190.557C45.5362 189.999 45.2188 189.558 44.7926 189.234C44.3707 188.906 43.8402 188.742 43.201 188.742C42.5874 188.742 42.0717 188.898 41.6541 189.209C41.2365 189.516 40.9212 189.946 40.7081 190.5C40.495 191.05 40.3885 191.691 40.3885 192.424Z" fill="#70899E"/>
<path d="M80.5852 184.242H82.4773L86.9261 195.109H87.0795L91.5284 184.242H93.4205V197.333H91.9375V187.387H91.8097L87.7188 197.333H86.2869L82.196 187.387H82.0682V197.333H80.5852V184.242ZM99.2836 197.563C98.6614 197.563 98.0968 197.446 97.5897 197.212C97.0826 196.973 96.6799 196.63 96.3816 196.182C96.0833 195.731 95.9341 195.185 95.9341 194.546C95.9341 193.984 96.0449 193.528 96.2665 193.178C96.4881 192.825 96.7843 192.548 97.155 192.347C97.5257 192.147 97.9348 191.998 98.3823 191.9C98.834 191.798 99.2878 191.717 99.7438 191.657C100.34 191.58 100.824 191.523 101.195 191.484C101.57 191.442 101.843 191.371 102.013 191.273C102.188 191.175 102.275 191.005 102.275 190.762V190.711C102.275 190.08 102.102 189.59 101.757 189.241C101.416 188.891 100.899 188.717 100.204 188.717C99.4838 188.717 98.9192 188.874 98.5101 189.19C98.101 189.505 97.8134 189.842 97.6472 190.199L96.2154 189.688C96.4711 189.092 96.812 188.627 97.2381 188.295C97.6685 187.958 98.1373 187.724 98.6444 187.592C99.1557 187.455 99.6586 187.387 100.153 187.387C100.468 187.387 100.83 187.425 101.24 187.502C101.653 187.574 102.051 187.726 102.435 187.956C102.823 188.186 103.144 188.533 103.4 188.998C103.656 189.462 103.784 190.084 103.784 190.864V197.333H102.275V196.003H102.198C102.096 196.217 101.926 196.445 101.687 196.687C101.448 196.93 101.131 197.137 100.735 197.307C100.338 197.478 99.8546 197.563 99.2836 197.563ZM99.5137 196.208C100.11 196.208 100.613 196.091 101.022 195.856C101.436 195.622 101.747 195.32 101.955 194.949C102.169 194.578 102.275 194.188 102.275 193.779V192.398C102.211 192.475 102.07 192.545 101.853 192.609C101.64 192.669 101.393 192.722 101.112 192.769C100.835 192.812 100.564 192.85 100.3 192.884C100.04 192.914 99.829 192.94 99.6671 192.961C99.275 193.012 98.9086 193.095 98.5676 193.21C98.231 193.321 97.9583 193.489 97.7495 193.715C97.5449 193.937 97.4426 194.239 97.4426 194.623C97.4426 195.147 97.6365 195.543 98.0243 195.812C98.4164 196.076 98.9128 196.208 99.5137 196.208ZM106.537 197.333V187.515H107.994V188.998H108.097C108.276 188.512 108.599 188.118 109.068 187.815C109.537 187.513 110.065 187.361 110.653 187.361C110.764 187.361 110.903 187.364 111.069 187.368C111.235 187.372 111.361 187.378 111.446 187.387V188.921C111.395 188.908 111.278 188.889 111.094 188.864C110.915 188.834 110.726 188.819 110.526 188.819C110.048 188.819 109.622 188.919 109.247 189.119C108.876 189.315 108.582 189.588 108.365 189.937C108.152 190.283 108.045 190.677 108.045 191.12V197.333H106.537Z" fill="#70899E"/>
<path d="M144.122 197.333H142.46L147.267 184.242H148.903L153.71 197.333H152.048L148.136 186.313H148.034L144.122 197.333ZM144.736 192.219H151.435V193.626H144.736V192.219ZM155.545 201.015V187.515H157.002V189.074H157.181C157.292 188.904 157.445 188.687 157.641 188.423C157.842 188.154 158.127 187.915 158.498 187.707C158.873 187.494 159.38 187.387 160.019 187.387C160.846 187.387 161.575 187.594 162.205 188.007C162.836 188.42 163.328 189.006 163.682 189.765C164.036 190.523 164.212 191.418 164.212 192.45C164.212 193.489 164.036 194.391 163.682 195.153C163.328 195.912 162.838 196.5 162.212 196.918C161.585 197.331 160.863 197.538 160.045 197.538C159.414 197.538 158.909 197.433 158.53 197.224C158.151 197.011 157.859 196.771 157.654 196.502C157.45 196.229 157.292 196.003 157.181 195.825H157.053V201.015H155.545ZM157.028 192.424C157.028 193.165 157.136 193.82 157.354 194.386C157.571 194.949 157.888 195.39 158.306 195.709C158.724 196.025 159.235 196.182 159.84 196.182C160.471 196.182 160.997 196.016 161.419 195.684C161.845 195.347 162.165 194.896 162.378 194.329C162.595 193.758 162.704 193.123 162.704 192.424C162.704 191.734 162.597 191.111 162.384 190.557C162.175 189.999 161.858 189.558 161.432 189.234C161.01 188.906 160.479 188.742 159.84 188.742C159.227 188.742 158.711 188.898 158.293 189.209C157.876 189.516 157.56 189.946 157.347 190.5C157.134 191.05 157.028 191.691 157.028 192.424ZM166.513 197.333V187.515H167.971V188.998H168.073C168.252 188.512 168.576 188.118 169.045 187.815C169.513 187.513 170.042 187.361 170.63 187.361C170.741 187.361 170.879 187.364 171.045 187.368C171.212 187.372 171.337 187.378 171.423 187.387V188.921C171.371 188.908 171.254 188.889 171.071 188.864C170.892 188.834 170.702 188.819 170.502 188.819C170.025 188.819 169.599 188.919 169.224 189.119C168.853 189.315 168.559 189.588 168.342 189.937C168.129 190.283 168.022 190.677 168.022 191.12V197.333H166.513Z" fill="#70899E"/>
<path d="M203.585 184.242H205.477L209.926 195.109H210.08L214.528 184.242H216.42V197.333H214.938V187.387H214.81L210.719 197.333H209.287L205.196 187.387H205.068V197.333H203.585V184.242ZM222.284 197.563C221.661 197.563 221.097 197.446 220.59 197.212C220.083 196.973 219.68 196.63 219.382 196.182C219.083 195.731 218.934 195.185 218.934 194.546C218.934 193.984 219.045 193.528 219.267 193.178C219.488 192.825 219.784 192.548 220.155 192.347C220.526 192.147 220.935 191.998 221.382 191.9C221.834 191.798 222.288 191.717 222.744 191.657C223.34 191.58 223.824 191.523 224.195 191.484C224.57 191.442 224.843 191.371 225.013 191.273C225.188 191.175 225.275 191.005 225.275 190.762V190.711C225.275 190.08 225.102 189.59 224.757 189.241C224.416 188.891 223.899 188.717 223.204 188.717C222.484 188.717 221.919 188.874 221.51 189.19C221.101 189.505 220.813 189.842 220.647 190.199L219.215 189.688C219.471 189.092 219.812 188.627 220.238 188.295C220.669 187.958 221.137 187.724 221.644 187.592C222.156 187.455 222.659 187.387 223.153 187.387C223.468 187.387 223.83 187.425 224.24 187.502C224.653 187.574 225.051 187.726 225.435 187.956C225.823 188.186 226.144 188.533 226.4 188.998C226.656 189.462 226.784 190.084 226.784 190.864V197.333H225.275V196.003H225.198C225.096 196.217 224.926 196.445 224.687 196.687C224.448 196.93 224.131 197.137 223.735 197.307C223.338 197.478 222.855 197.563 222.284 197.563ZM222.514 196.208C223.11 196.208 223.613 196.091 224.022 195.856C224.436 195.622 224.747 195.32 224.955 194.949C225.169 194.578 225.275 194.188 225.275 193.779V192.398C225.211 192.475 225.07 192.545 224.853 192.609C224.64 192.669 224.393 192.722 224.112 192.769C223.835 192.812 223.564 192.85 223.3 192.884C223.04 192.914 222.829 192.94 222.667 192.961C222.275 193.012 221.909 193.095 221.568 193.21C221.231 193.321 220.958 193.489 220.749 193.715C220.545 193.937 220.443 194.239 220.443 194.623C220.443 195.147 220.637 195.543 221.024 195.812C221.416 196.076 221.913 196.208 222.514 196.208ZM230.157 201.015C229.901 201.015 229.673 200.994 229.473 200.951C229.273 200.913 229.134 200.874 229.058 200.836L229.441 199.506C229.808 199.6 230.131 199.634 230.413 199.609C230.694 199.583 230.943 199.457 231.161 199.231C231.382 199.01 231.585 198.65 231.768 198.151L232.049 197.384L228.418 187.515H230.055L232.765 195.339H232.867L235.577 187.515H237.214L233.046 198.765C232.859 199.272 232.626 199.692 232.349 200.024C232.072 200.361 231.751 200.61 231.384 200.772C231.022 200.934 230.613 201.015 230.157 201.015Z" fill="white"/>
<path d="M274.597 184.242H276.182V193.6C276.182 194.435 276.028 195.145 275.722 195.729C275.415 196.312 274.982 196.756 274.424 197.058C273.866 197.361 273.207 197.512 272.449 197.512C271.733 197.512 271.096 197.382 270.538 197.122C269.979 196.858 269.54 196.483 269.221 195.997C268.901 195.511 268.741 194.934 268.741 194.265H270.301C270.301 194.636 270.393 194.959 270.576 195.236C270.763 195.509 271.019 195.722 271.343 195.876C271.667 196.029 272.036 196.106 272.449 196.106C272.905 196.106 273.293 196.01 273.612 195.818C273.932 195.626 274.175 195.345 274.341 194.974C274.511 194.599 274.597 194.141 274.597 193.6V184.242ZM282.043 197.563C281.421 197.563 280.857 197.446 280.349 197.212C279.842 196.973 279.44 196.63 279.141 196.182C278.843 195.731 278.694 195.185 278.694 194.546C278.694 193.984 278.805 193.528 279.026 193.178C279.248 192.825 279.544 192.548 279.915 192.347C280.286 192.147 280.695 191.998 281.142 191.9C281.594 191.798 282.048 191.717 282.504 191.657C283.1 191.58 283.584 191.523 283.955 191.484C284.33 191.442 284.602 191.371 284.773 191.273C284.947 191.175 285.035 191.005 285.035 190.762V190.711C285.035 190.08 284.862 189.59 284.517 189.241C284.176 188.891 283.658 188.717 282.964 188.717C282.244 188.717 281.679 188.874 281.27 189.19C280.861 189.505 280.573 189.842 280.407 190.199L278.975 189.688C279.231 189.092 279.572 188.627 279.998 188.295C280.428 187.958 280.897 187.724 281.404 187.592C281.915 187.455 282.418 187.387 282.913 187.387C283.228 187.387 283.59 187.425 283.999 187.502C284.413 187.574 284.811 187.726 285.195 187.956C285.582 188.186 285.904 188.533 286.16 188.998C286.415 189.462 286.543 190.084 286.543 190.864V197.333H285.035V196.003H284.958C284.856 196.217 284.685 196.445 284.447 196.687C284.208 196.93 283.891 197.137 283.494 197.307C283.098 197.478 282.614 197.563 282.043 197.563ZM282.273 196.208C282.87 196.208 283.373 196.091 283.782 195.856C284.195 195.622 284.506 195.32 284.715 194.949C284.928 194.578 285.035 194.188 285.035 193.779V192.398C284.971 192.475 284.83 192.545 284.613 192.609C284.4 192.669 284.153 192.722 283.871 192.769C283.594 192.812 283.324 192.85 283.06 192.884C282.8 192.914 282.589 192.94 282.427 192.961C282.035 193.012 281.668 193.095 281.327 193.21C280.991 193.321 280.718 193.489 280.509 193.715C280.305 193.937 280.202 194.239 280.202 194.623C280.202 195.147 280.396 195.543 280.784 195.812C281.176 196.076 281.673 196.208 282.273 196.208ZM290.805 191.427V197.333H289.297V187.515H290.754V189.049H290.882C291.112 188.55 291.461 188.15 291.93 187.847C292.399 187.54 293.004 187.387 293.746 187.387C294.41 187.387 294.992 187.523 295.491 187.796C295.989 188.065 296.377 188.474 296.654 189.023C296.931 189.569 297.069 190.259 297.069 191.094V197.333H295.561V191.197C295.561 190.425 295.361 189.825 294.96 189.394C294.559 188.959 294.01 188.742 293.311 188.742C292.829 188.742 292.399 188.847 292.02 189.055C291.645 189.264 291.349 189.569 291.131 189.969C290.914 190.37 290.805 190.856 290.805 191.427Z" fill="#70899E"/>
<path d="M220.366 166.703C220.366 168.739 218.887 170.266 217.097 170.266C215.306 170.266 213.827 168.739 213.827 166.703C213.827 164.751 215.306 163.139 217.097 163.139C218.887 163.139 220.366 164.751 220.366 166.703Z" fill="url(#paint0_linear_9_276)"/>
<defs>
<linearGradient id="paint0_linear_9_276" x1="2447.35" y1="1558.54" x2="2502.33" y2="1558.54" gradientUnits="userSpaceOnUse">
<stop stop-color="#8B68FF"/>
<stop offset="1" stop-color="#6060E7"/>
</linearGradient>
</defs>
</svg>
